<?xml version="1.0" encoding="UTF-8"?>
<svg width="140px" height="37px" viewBox="0 0 140 37" version="1.1" xmlns="http://www.w3.org/2000/svg" xmlns:xlink="http://www.w3.org/1999/xlink">
    <!-- Generator: Sketch 52.6 (67491) - http://www.bohemiancoding.com/sketch -->
    <title>Group</title>
    <desc>Created with Sketch.</desc>
    <g id="Page-1" stroke="none" stroke-width="1" fill="none" fill-rule="evenodd">
        <g id="Group">
            <polygon id="Fill-1" fill="#1A1919" points="0 36.416 139.183 36.416 139.183 -2.84217094e-14 0 -2.84217094e-14"></polygon>
            <polygon id="Fill-32" fill="#FFFFFE" points="27 13.726 28.112 13.726 28.112 5 27 5"></polygon>
            <polygon id="Fill-34" fill="#FFFFFE" points="36.982 5 36.982 13.726 35.459 13.726 32.015 6.16 31.991 6.16 31.991 13.726 31 13.726 31 5 32.571 5 35.967 12.469 35.991 12.469 35.991 5"></polygon>
            <path d="M41.1040407,11.308 L41.1040407,11.562 C41.1040407,12.746 41.8530407,13.121 42.5660407,13.121 C43.4490407,13.121 44.1250407,12.746 44.1250407,11.707 C44.1250407,9.774 40.2090407,9.991 40.2090407,7.369 C40.2090407,5.822 41.3100407,5 42.7720407,5 C44.3670407,5 45.2610407,5.774 45.1890407,7.55 L44.0290407,7.55 C44.0410407,6.595 43.7390407,5.967 42.6870407,5.967 C42.0220407,5.967 41.3460407,6.305 41.3460407,7.247 C41.3460407,9.169 45.2610407,8.891 45.2610407,11.659 C45.2610407,13.496 43.9920407,14.088 42.5540407,14.088 C39.9800407,14.112 39.9800407,12.142 40.0040407,11.308 L41.1040407,11.308 Z" id="Fill-35" fill="#FFFFFE"></path>
            <path d="M49.112,8.916 L50.333,8.916 C50.792,8.916 51.88,8.795 51.88,7.43 C51.88,6.1 50.888,5.967 50.647,5.967 L49.112,5.967 L49.112,8.916 Z M48,13.726 L48,5 L50.586,5 C51.758,5 53.015,5.436 53.015,7.489 C53.015,9.472 51.468,9.883 50.574,9.883 L49.112,9.883 L49.112,13.726 L48,13.726 Z" id="Fill-36" fill="#FFFFFE"></path>
            <polygon id="Fill-37" fill="#FFFFFE" points="56 13.726 56 5 60.496 5 60.496 5.967 57.112 5.967 57.112 8.771 60.254 8.771 60.254 9.738 57.112 9.738 57.112 12.759 60.568 12.759 60.568 13.726"></polygon>
            <path d="M66.939,7.586 C66.951,7.09 66.915,6.595 66.686,6.316 C66.456,6.039 65.936,5.942 65.707,5.942 C64.788,5.942 64.425,6.498 64.389,6.619 C64.353,6.716 64.135,6.934 64.135,8.432 L64.135,10.764 C64.135,12.903 64.836,13.157 65.694,13.157 C66.033,13.157 67.06,13.036 67.072,11.332 L68.22,11.332 C68.269,14.088 66.323,14.088 65.755,14.088 C64.667,14.088 63,14.015 63,10.631 L63,8.166 C63,5.7 64.087,5 65.803,5 C67.531,5 68.196,5.894 68.087,7.586 L66.939,7.586 Z" id="Fill-38" fill="#FFFFFE"></path>
            <polygon id="Fill-39" fill="#FFFFFE" points="76.704 5 76.704 5.967 74.408 5.967 74.408 13.726 73.297 13.726 73.297 5.967 71 5.967 71 5"></polygon>
            <polygon id="Fill-40" fill="#FFFFFE" points="79 13.726 79 5 83.496 5 83.496 5.967 80.112 5.967 80.112 8.771 83.254 8.771 83.254 9.738 80.112 9.738 80.112 12.759 83.568 12.759 83.568 13.726"></polygon>
            <path d="M87.112,12.759 L88.163,12.759 C89.71,12.759 90.278,12.179 90.278,10.149 L90.278,8.384 C90.278,6.62 89.734,5.967 88.574,5.967 L87.112,5.967 L87.112,12.759 Z M86,5 L88.682,5 C89.795,5 90.592,5.4 91.027,6.329 C91.378,7.067 91.414,8.807 91.414,9.085 C91.414,10.947 91.245,12.022 90.883,12.602 C90.411,13.351 89.529,13.726 88.006,13.726 L86,13.726 L86,5 Z" id="Fill-41" fill="#FFFFFE"></path>
            <path d="M99.111,12.759 L100.682,12.759 C101.867,12.759 102.29,11.913 102.29,11.273 C102.29,9.883 101.431,9.641 100.296,9.641 L99.111,9.641 L99.111,12.759 Z M99.111,8.674 L100.73,8.674 C101.601,8.662 102.024,8.13 102.024,7.284 C102.024,6.56 101.613,5.967 100.682,5.967 L99.111,5.967 L99.111,8.674 Z M98,13.726 L98,5 L100.84,5 C102.048,5 102.459,5.411 102.785,5.895 C103.088,6.366 103.135,6.886 103.135,7.055 C103.135,8.143 102.761,8.867 101.637,9.121 L101.637,9.182 C102.882,9.327 103.425,10.076 103.425,11.273 C103.425,13.508 101.795,13.726 100.803,13.726 L98,13.726 Z" id="Fill-42" fill="#FFFFFE"></path>
            <polygon id="Fill-43" fill="#FFFFFE" points="110.713 5 111.837 5 109.456 10.402 109.456 13.726 108.345 13.726 108.345 10.402 106 5 107.245 5 108.948 9.218"></polygon>
            <path d="M15.66,21.783 C14.773,21.783 14.19,21.573 13.723,21.106 C13.257,20.616 13,20.033 13,19.403 C13,18.516 13.584,17.583 14.33,17.257 C14.867,17.023 15.077,17 17.107,17 L22.286,17 C23.732,17 23.732,17 24.036,17.047 C25.272,17.21 26.136,18.166 26.136,19.38 C26.136,20.056 25.809,20.756 25.296,21.222 C24.899,21.596 24.246,21.783 23.312,21.783 L22.169,21.783 L22.169,29.528 C22.169,30.462 22.053,30.974 21.726,31.512 C21.26,32.258 20.49,32.678 19.603,32.678 C18.74,32.678 17.97,32.281 17.48,31.604 C17.13,31.068 17.036,30.625 17.036,29.575 L17.036,21.783 L15.66,21.783 Z" id="Fill-45" fill="#FFFFFE"></path>
            <path d="M34.212,28.245 C35.892,28.245 37.268,26.846 37.268,25.165 C37.268,23.509 35.892,22.156 34.212,22.156 C32.532,22.156 31.155,23.485 31.155,25.142 C31.155,26.846 32.532,28.245 34.212,28.245 M34.189,17 C38.738,17 42.401,20.64 42.401,25.142 C42.401,29.644 38.715,33.331 34.212,33.331 C29.639,33.331 26,29.668 26,25.072 C26,20.593 29.639,17 34.189,17" id="Fill-46" fill="#FFFFFE"></path>
            <path d="M52.212,28.245 C53.892,28.245 55.268,26.846 55.268,25.165 C55.268,23.509 53.892,22.156 52.212,22.156 C50.532,22.156 49.155,23.485 49.155,25.142 C49.155,26.846 50.532,28.245 52.212,28.245 M52.189,17 C56.738,17 60.401,20.64 60.401,25.142 C60.401,29.644 56.715,33.331 52.212,33.331 C47.639,33.331 44,29.668 44,25.072 C44,20.593 47.639,17 52.189,17" id="Fill-47" fill="#FFFFFE"></path>
            <path d="M63.66,21.783 C62.773,21.783 62.19,21.573 61.723,21.106 C61.257,20.616 61,20.033 61,19.403 C61,18.516 61.584,17.583 62.33,17.257 C62.867,17.023 63.077,17 65.107,17 L70.286,17 C71.732,17 71.732,17 72.036,17.047 C73.272,17.21 74.136,18.166 74.136,19.38 C74.136,20.056 73.808,20.756 73.296,21.222 C72.899,21.596 72.246,21.783 71.312,21.783 L70.169,21.783 L70.169,29.528 C70.169,30.462 70.053,30.974 69.726,31.512 C69.26,32.258 68.49,32.678 67.603,32.678 C66.74,32.678 65.97,32.281 65.48,31.604 C65.13,31.068 65.036,30.625 65.036,29.575 L65.036,21.783 L63.66,21.783 Z" id="Fill-48" fill="#FFFFFE"></path>
            <path d="M81.156,29.481 C81.133,30.764 81.063,31.09 80.713,31.651 C80.246,32.374 79.453,32.794 78.59,32.794 C77.703,32.794 76.91,32.374 76.443,31.651 C76.094,31.09 76,30.648 76,29.481 L76,20.102 C76,19.005 76.117,18.539 76.537,18.002 C77.027,17.373 77.773,17 78.566,17 C79.36,17 80.177,17.396 80.643,18.002 C81.063,18.562 81.156,18.889 81.156,20.218 L81.156,22.412 L84.282,22.412 L84.282,20.289 C84.282,19.052 84.376,18.585 84.819,18.002 C85.286,17.373 86.009,17 86.802,17 C87.595,17 88.388,17.373 88.855,17.979 C89.252,18.492 89.415,19.099 89.415,20.102 L89.415,29.528 C89.415,30.601 89.322,31.021 88.995,31.557 C88.529,32.328 87.712,32.794 86.826,32.794 C86.009,32.794 85.239,32.42 84.772,31.767 C84.376,31.208 84.282,30.764 84.282,29.528 L84.282,27.288 L81.156,27.288 L81.156,29.481 Z" id="Fill-49" fill="#FFFFFE"></path>
            <path d="M97.156,23.439 C98.392,23.508 98.859,23.276 98.859,22.576 C98.859,22.062 98.392,21.759 97.623,21.759 L97.156,21.759 L97.156,23.439 Z M97.156,29.714 C97.156,31.488 96.13,32.677 94.59,32.677 C93.726,32.677 92.91,32.235 92.443,31.511 C92.047,30.881 92,30.625 92,29.061 L92,19.962 C92,18.842 92.164,18.33 92.7,17.769 C93.237,17.233 93.843,17 94.8,17 L96.946,17 C99.442,17 100.515,17.28 101.706,18.189 C103.082,19.239 103.899,20.896 103.899,22.623 C103.899,24.348 103.058,26.005 101.635,27.079 C100.586,27.872 99.536,28.198 98.019,28.198 L97.156,28.198 L97.156,29.714 Z" id="Fill-50" fill="#FFFFFE"></path>
            <path d="M111.133,29.831 C111.133,30.811 110.946,31.418 110.48,31.932 C109.99,32.468 109.243,32.794 108.567,32.794 C107.867,32.794 107.097,32.468 106.654,31.977 C106.164,31.441 106,30.904 106,29.831 L106,20.196 C106,18.89 106.117,18.423 106.654,17.84 C107.12,17.303 107.797,17 108.543,17 C109.29,17 109.99,17.303 110.456,17.816 C110.97,18.399 111.133,18.935 111.133,20.196 L111.133,29.831 Z" id="Fill-51" fill="#FFFFFE"></path>
            <path d="M113.353,21.782 C112.607,20.779 112.327,20.173 112.327,19.565 C112.327,18.189 113.54,17 114.94,17 C115.78,17 116.503,17.396 117.11,18.166 L118.766,20.359 L120.33,18.399 C121.123,17.373 121.729,17 122.592,17 C124.015,17 125.206,18.166 125.206,19.543 C125.206,20.102 124.925,20.779 124.389,21.502 L122.009,24.652 L124.925,28.548 C125.276,29.014 125.486,29.621 125.486,30.251 C125.486,31.651 124.366,32.794 122.965,32.794 C122.149,32.794 121.403,32.421 120.866,31.698 L118.766,28.945 L116.666,31.675 C116.037,32.468 115.43,32.794 114.567,32.794 C113.166,32.794 112,31.628 112,30.251 C112,29.644 112.21,28.991 112.607,28.502 L115.523,24.652 L113.353,21.782 Z" id="Fill-52" fill="#FFFFFE"></path>
        </g>
    </g>
</svg>