<?xml version="1.0" encoding="iso-8859-1"?>
<!-- Generator: Adobe Illustrator 17.1.0, SVG Export Plug-In . SVG Version: 6.00 Build 0)  -->
<!DOCTYPE svg PUBLIC "-//W3C//DTD SVG 1.1//EN" "http://www.w3.org/Graphics/SVG/1.1/DTD/svg11.dtd">
<svg version="1.1" id="Capa_1" xmlns="http://www.w3.org/2000/svg" xmlns:xlink="http://www.w3.org/1999/xlink" x="0px" y="0px"
	 viewBox="0 0 320.851 320.851" style="enable-background:new 0 0 320.851 320.851;" xml:space="preserve">
<g>
	<path d="M179.345,65.68c-18.036-6.272-37.15-6.458-55.242-0.544c-4.724,1.545-7.302,6.627-5.758,11.351
		c1.545,4.724,6.625,7.299,11.351,5.758c14.365-4.697,29.405-4.548,43.737,0.436c0.979,0.34,1.976,0.502,2.957,0.502
		c3.724,0,7.208-2.33,8.5-6.046C186.523,72.442,184.04,67.312,179.345,65.68z"/>
	<path d="M311.851,114.861c-15.258,0-29.66-7.412-38.553-19.833c-2.182-3.292-4.546-6.524-7.054-9.641V23.668
		c0-3.719-2.287-7.054-5.755-8.395c-3.47-1.34-7.405-0.41-9.905,2.342l-28.782,31.673c-21.52-11.192-45.862-17.097-70.881-17.097
		c-51.647,0-96.974,25.028-122.027,62.42L14.92,82.411c-3.745-3.27-9.43-2.884-12.699,0.86c-3.27,3.744-2.884,9.43,0.86,12.699
		l16.732,14.61c-7.456,15.689-11.596,32.969-11.596,51.111c0,9.92,1.242,19.809,3.691,29.393c0.002,0.007,0.004,0.013,0.006,0.02
		l26.824,108.244c0.995,4.015,4.599,6.835,8.736,6.835h35.791c0.008,0,0.017,0.001,0.024,0.001c0.288,0,0.574-0.017,0.858-0.045
		c0.074-0.007,0.146-0.019,0.22-0.028c0.2-0.024,0.398-0.054,0.595-0.091c0.105-0.02,0.21-0.044,0.313-0.067
		c0.159-0.036,0.316-0.077,0.472-0.122c0.118-0.033,0.235-0.067,0.35-0.105c0.14-0.046,0.277-0.099,0.414-0.151
		c0.118-0.045,0.237-0.088,0.353-0.138c0.158-0.069,0.312-0.146,0.465-0.224c0.162-0.082,0.32-0.168,0.476-0.259
		c0.146-0.085,0.293-0.171,0.435-0.265c0.092-0.061,0.179-0.126,0.269-0.19c0.134-0.096,0.267-0.193,0.395-0.296
		c0.081-0.064,0.159-0.132,0.238-0.199c0.133-0.114,0.263-0.232,0.39-0.354c0.066-0.064,0.132-0.128,0.196-0.194
		c0.135-0.139,0.265-0.283,0.391-0.43c0.05-0.058,0.101-0.115,0.149-0.174c0.143-0.176,0.278-0.358,0.408-0.545
		c0.026-0.038,0.055-0.074,0.08-0.112c0.154-0.23,0.3-0.467,0.433-0.713c0.021-0.037,0.037-0.077,0.056-0.114
		c0.104-0.199,0.204-0.401,0.294-0.609c0.049-0.114,0.091-0.233,0.136-0.35c0.052-0.136,0.104-0.271,0.15-0.411
		c0.044-0.135,0.082-0.272,0.12-0.409c0.022-0.081,0.05-0.159,0.071-0.241l7.658-30.897c16.717,5.986,33.908,9.026,51.244,9.026
		c17.119,0,33.736-2.69,49.54-8.009l7.404,29.879l0.004-0.001c0.898,3.605,4.036,6.836,9.133,6.836l35.407,0.001
		c4.428,0,8.198-3.221,8.89-7.595l12.164-76.942c14.074-5.407,23.899-13.19,30.478-20.21c12.754-13.61,16.47-27.495,16.621-28.08
		c0.192-0.739,0.29-1.5,0.29-2.264v-47.23C320.851,118.891,316.821,114.861,311.851,114.861z M302.851,169.758
		c-2.146,6.456-16.044,40.712-69.097,40.712c-4.971,0-9,4.029-9,9s4.029,9,9,9c7.516,0,14.384-0.613,20.671-1.679l-9.706,61.391
		c-6.254,0-15.007,0-21.077,0l-8.141-32.853c-0.631-2.545-2.34-4.689-4.682-5.871c-2.341-1.181-5.081-1.283-7.503-0.278
		c-16.467,6.831-34.095,10.295-52.396,10.295c-17.85,0-35.569-3.673-52.688-10.9c-0.791-0.498-1.669-0.884-2.625-1.121
		c-4.826-1.194-9.705,1.746-10.901,6.571l-8.465,34.157H54.516L29.365,186.689c-0.004-0.016-0.01-0.031-0.014-0.047
		c-0.002-0.005-0.002-0.011-0.003-0.016c-2.077-8.128-3.13-16.518-3.13-24.936c0-61.481,55.941-111.499,124.703-111.499
		c20.48,0,40.414,4.458,58.302,12.939l-4.604,5.066c-3.343,3.679-3.071,9.371,0.608,12.713c3.677,3.342,9.37,3.07,12.713-0.608
		l12.419-13.666c0.015-0.017,0.031-0.034,0.046-0.051l17.84-19.632v41.672c0,2.224,0.822,4.335,2.255,5.958
		c2.836,3.357,5.482,6.891,7.871,10.505c0.057,0.086,0.115,0.171,0.175,0.255c10.498,14.758,26.623,24.422,44.305,26.892V169.758z"
		/>
	<circle cx="231.722" cy="146.442" r="20.762"/>
</g>
<g>
</g>
<g>
</g>
<g>
</g>
<g>
</g>
<g>
</g>
<g>
</g>
<g>
</g>
<g>
</g>
<g>
</g>
<g>
</g>
<g>
</g>
<g>
</g>
<g>
</g>
<g>
</g>
<g>
</g>
</svg>
